ply
format ascii 1.0
comment Created in Blender version 4.0.0
element vertex 177
property float x
property float y
property float z
element face 368
property list uchar uint vertex_indices
end_header
-0.2072 0.20560001 0.24409999
-0.2072 0.2056 0.034699984
-0.2108 0.1843 0.014799986
-0.2108 0.18430002 0.2648
-0.1827 0.18070002 0.2648
-0.1792 0.20210001 0.24409999
-0.1792 0.2021 0.034699984
-0.1827 0.1807 0.014799986
0.2098 -0.2186 0.004700016
-0.2735 0.0065000365 0.4803
-0.2512 -0.044999972 0.3908
-0.2313 -0.09879997 0.5141
-0.1456 -0.10909996 0.5062
-0.1064 -0.017299965 0.4578
-0.0618 -0.026099954 0.622
-0.1298 0.057400044 0.6129
-0.1108 0.09130004 0.5372
-0.1397 0.101300046 0.5462
-0.2305 0.079200044 0.5537
-0.2188 0.10620004 0.4966
-0.2542 0.078600034 0.5107
-0.201 0.095900044 0.556
-0.1213 0.11750004 0.4917
-0.0769 0.029900046 0.6061
-0.102 0.04630004 0.4796
-0.2051 0.05240005 0.6233
-0.2612 0.011000047 0.6296
-0.2391 -0.059299953 0.6456
-0.1471 -0.05409997 0.3804
-0.1343 -0.12169995 0.62
-0.2167 -0.106499955 0.6239
-0.2306 0.21630003 0.38819999
-0.212 0.19110003 0.4878
-0.1166 0.18110003 0.4754
-0.1145 0.20810004 0.37579998
-0.294 0.057300035 0.435
-0.2709 0.13150004 0.4676
-0.2152 0.15580004 0.5139
-0.3006 0.09980002 0.3196
-0.0854 0.12540004 0.446
-0.1184 0.15400004 0.4979
-0.0785 0.03850003 0.4031
-0.1715 -0.05579998 0.2484
-0.151 -0.036799975 0.3317
-0.2565 -0.032699972 0.3418
-0.2676 -0.049999982 0.2594
-0.1207 0.074600026 0.2599
-0.1363 -0.040699985 0.2184
-0.2584 0.20230001 0.28229997
-0.3096 0.06730002 0.2656
-0.2874 -0.035699982 0.2353
-0.111 0.17920001 0.2657
-0.1747 -0.13289998 0.12950002
-0.3229 -0.10429999 0.13640001
-0.218 -0.2129 0.076100014
-0.3368 -0.19 0.08160002
-0.3135 0.123500004 0.14709999
-0.3386 -0.03159999 0.1145
-0.2844 0.2053 0.0044999844
-0.3135 0.1222 0.0044999905
-0.2785 0.21740001 0.15519999
-0.3367 -0.0322 0.004500002
-0.3286 -0.1957 0.004600015
-0.2098 -0.2186 0.004700016
-0.0998 0.18930002 0.14509998
-0.148 0.16290002 0.14779998
-0.1496 0.16730002 0.23359999
-0.1165 0.1836 0.004399986
-0.1223 -0.033699993 0.1114
-0.1181 -0.0296 0.0046000024
-0.239 0.17720002 0.15289998
-0.2422 0.186 0.051399983
-0.2249 0.18780002 0.24159999
-0.1553 0.1736 0.050399985
-0.168 -0.16369992 1.048
-0.1071 -0.20409992 1.0412
-0.0716 -0.20789993 1.0649
-0.0573 -0.18229993 1.0312
-0.0353 -0.22489993 1.0628
-0.0384 -0.21409993 1.0015
-0.0356 -0.18819992 0.9616
-0.033 -0.15479992 0.9253
-0.025 -0.089099936 0.9094
-0.0227 -0.06809993 0.9211
-0.0181 0.04700007 0.9296
-0.0465 -0.14099993 0.9758
-0.0592 0.12140007 0.9556
-0.0649 0.11730006 0.9243
-0.0979 0.09350006 0.7433
-0.0532 0.040900055 0.7286
-0.0756 0.03020005 0.641
-0.1269 0.08340005 0.6365
-0.2045 0.07970005 0.6509
-0.1982 0.08770006 0.7599
-0.2534 0.00380005 0.6615
-0.1151 -0.14599994 0.6999
-0.2224 -0.12799995 0.7069
-0.2511 -0.007399944 0.7426
-0.0219 0.046400066 0.908
-0.0418 -0.024999946 0.7146
-0.2344 -0.010599924 1.0038
-0.0175 -0.03199993 0.9199
-0.0456 -0.11829993 0.9247
-0.0788 -0.15079993 0.9297
-0.1068 -0.16379993 0.9418
-0.1786 -0.14449993 0.9704
-0.2107 -0.12639992 0.9652
-0.18951102 0.18762225 0.2590454
-0.18173052 0.18662763 0.25906628
-0.20979814 0.19022773 0.25903928
-0.19015527 0.18827699 0.020855488
-0.18163972 0.18718289 0.02082846
-0.20970121 0.19080119 0.020873865
-0.1827 0.18070002 0.24420652
-0.21039358 0.18670471 0.2446694
-0.2108 0.18430002 0.24064906
-0.1820677 0.18456598 0.25066286
-0.18242887 0.18235779 0.24697508
-0.21046041 0.18630928 0.036430366
-0.2106146 0.18539694 0.039590012
-0.1820211 0.184851 0.028898723
-0.2108 0.1843 0.042885963
-0.1827 0.1807 0.041361444
-0.16686915 -0.15686864 1.0738481
-0.16554989 -0.14636073 1.0696201
-0.13387135 -0.17708245 1.0814244
-0.11286905 -0.18929775 1.085986
-0.09894574 -0.19311671 1.087297
-0.014974448 -0.23294854 1.1019291
-0.033869546 -0.22932972 1.1007763
-0.05594079 -0.21847187 1.0967748
-0.0704973 -0.20326357 1.0909138
-0.03822362 0.11588479 0.96262336
-0.06534513 0.12011148 0.96135616
-0.086830616 0.119191505 0.9620613
-0.14267589 0.11361632 0.96516883
-0.09575311 0.11830075 0.96255773
-0.19414362 -0.14574945 1.0698235
-0.20973697 0.041894637 0.99493676
-0.23028733 0.0010776016 1.0116017
-0.23115616 -0.006551891 1.0146701
-0.22916567 -0.023759684 1.0215287
-0.23067111 -0.0123858685 1.0169984
-0.21682811 -0.08302081 1.045063
-0.053113867 0.123360015 0.9598637
-0.06317145 0.120762326 0.9610615
-0.17833659 0.11025526 0.9670735
-0.20379637 -0.13839042 1.0670284
0.20304535 -0.2046782 0.0046926495
0.21040665 -0.21817832 0.009982268
0.21886675 -0.20528209 0.0046857256
0.22200732 -0.20539984 0.0046834983
0.2284498 -0.21479395 0.008343547
-0.015079312 -0.06534708 0.92103285
-0.01519076 -0.074881405 0.91713035
-0.015382635 -0.08890759 0.9092846
-0.0154820485 -0.11544562 0.91431123
-0.01561509 -0.15664378 0.9237195
-0.0142548885 0.047042556 0.93015236
-0.014070808 0.059599645 0.9381036
-0.01450169 -0.026811412 0.9463921
-0.0145305935 -0.033898007 0.9475568
-0.014561621 -0.032890346 0.9447426
-0.014545043 -0.034424752 0.9467161
-0.015454053 -0.17404729 0.94406885
-0.014209556 -0.22890294 1.063756
-0.013616317 -0.11425538 1.054384
-0.013728816 -0.23305973 1.1019541
-0.013767888 -0.23283988 1.0989052
-0.013406486 0.107336976 0.9656569
-0.015183468 -0.20013373 0.976772
-0.01532759 -0.18979438 0.96103054
-0.014940748 -0.21532176 1.0022331
-0.014631768 -0.21974751 1.0276113
-0.014524808 -0.034085974 0.94808155
-0.014549603 -0.034815922 0.9465569
0.26911664 -0.20716608 0.004650086
3 5 6 1
3 1 0 5
3 9 10 11
3 12 13 14
3 15 16 17
3 18 19 20
3 19 21 17
3 17 22 19
3 23 14 13
3 13 24 23
3 22 17 16
3 25 18 26
3 21 25 15
3 15 17 21
3 26 20 9
3 9 27 26
3 28 12 11
3 11 10 28
3 12 14 29
3 30 11 12
3 12 29 30
3 23 24 16
3 22 16 24
3 25 21 18
3 21 19 18
3 20 26 18
3 23 16 15
3 31 32 33
3 33 34 31
3 35 9 20
3 20 36 35
3 36 20 37
3 37 32 36
3 36 31 38
3 38 35 36
3 33 39 34
3 40 33 32
3 32 37 40
3 40 24 39
3 39 33 40
3 24 13 41
3 41 39 24
3 42 43 44
3 44 45 42
3 41 46 39
3 28 43 41
3 42 47 46
3 35 44 10
3 38 48 49
3 20 19 37
3 37 19 22
3 22 40 37
3 40 22 24
3 42 46 43
3 10 9 35
3 46 41 43
3 46 34 39
3 31 36 32
3 38 45 44
3 43 28 10
3 10 44 43
3 35 38 44
3 41 13 28
3 50 38 49
3 34 51 48
3 48 31 34
3 50 47 42
3 42 45 50
3 46 51 34
3 52 47 50
3 50 53 52
3 54 52 53
3 53 55 54
3 49 56 57
3 58 59 56
3 56 60 58
3 59 61 57
3 57 56 59
3 53 50 57
3 55 53 57
3 62 63 54
3 54 55 62
3 64 65 66
3 66 51 64
3 48 60 56
3 56 49 48
3 67 64 68
3 68 69 67
3 64 51 46
3 46 68 64
3 60 70 71
3 71 58 60
3 68 47 52
3 54 63 69
3 69 68 54
3 68 52 54
3 55 57 61
3 61 62 55
3 61 69 63
3 63 62 61
3 59 67 69
3 69 61 59
3 67 59 58
3 72 70 60
3 60 48 72
3 66 65 70
3 70 72 66
3 73 65 64
3 64 67 73
3 70 65 73
3 73 71 70
3 47 68 46
3 49 57 50
3 45 38 50
3 38 31 48
3 77 76 75
3 77 79 78
3 78 76 77
3 81 85 82
3 85 81 80
3 80 79 85
3 77 85 79
3 88 89 90
3 90 91 88
3 88 91 92
3 92 93 88
3 25 26 94
3 29 95 96
3 96 30 29
3 97 93 92
3 92 94 97
3 23 90 14
3 15 91 90
3 87 86 98
3 27 30 96
3 90 89 99
3 99 14 90
3 25 92 91
3 91 15 25
3 25 94 92
3 23 15 90
3 97 27 96
3 97 94 27
3 14 99 95
3 95 29 14
3 26 27 94
3 98 101 99
3 99 89 98
3 102 99 101
3 102 103 95
3 95 99 102
3 104 95 103
3 101 98 84
3 84 98 86
3 87 88 93
3 98 89 88
3 88 87 98
3 104 105 96
3 96 95 104
3 106 96 105
3 106 100 97
3 97 96 106
3 93 97 100
3 11 30 27
3 9 11 27
3 12 28 13
3 85 77 103
3 103 102 85
3 77 75 104
3 104 103 77
3 104 74 105
3 106 105 74
3 75 74 104
3 118 1 112
3 2 118 112
3 0 119 115
3 118 121 119
3 115 109 114
3 5 107 108
3 108 107 4
3 0 109 107
3 3 107 109
3 108 116 6
3 108 117 116
3 117 122 120
3 120 7 111
3 113 117 4
3 110 6 111
3 111 7 110
3 1 110 112
3 110 2 112
3 72 114 115
3 113 51 66
3 116 113 114
3 48 108 109
3 107 116 114
3 58 112 111
3 110 118 120
3 71 73 122
3 119 122 120
3 74 123 124
3 123 74 125
3 125 75 126
3 75 127 126
3 76 130 131
3 130 78 129
3 76 131 127
3 133 86 134
3 86 135 136
3 74 124 137
3 139 138 100
3 100 140 139
3 100 141 142
3 100 142 140
3 100 143 141
3 132 86 144
3 145 86 133
3 86 145 144
3 87 146 135
3 100 146 93
3 147 74 137
3 106 143 100
3 150 149 151
3 173 154 174
3 152 176 151
3 8 152 149
3 149 148 8
3 150 8 148
3 8 151 176
3 78 173 165
3 79 173 78
3 164 80 81
3 81 157 164
3 154 82 83
3 154 83 153
3 156 81 82
3 156 82 155
3 160 84 158
3 153 83 163
3 82 174 175
3 83 175 163
3 79 170 172
3 80 170 79
3 174 102 161
3 161 101 162
3 160 101 84
3 124 135 140
3 132 133 136
3 78 168 128
3 128 168 167
3 132 159 84
3 158 84 159
3 118 0 1
3 114 109 0
3 0 118 119
3 119 121 115
3 115 114 0
3 118 2 121
3 115 3 109
3 5 0 107
3 3 4 107
3 6 5 108
3 116 117 6
3 108 4 117
3 111 6 117
3 117 113 122
3 120 111 117
3 120 122 7
3 110 1 6
3 110 7 2
3 117 116 51
3 66 72 115
3 115 114 113
3 113 117 51
3 66 115 113
3 116 117 113
3 109 114 72
3 51 116 108
3 108 107 109
3 109 72 48
3 48 51 108
3 114 109 107
3 107 108 116
3 111 120 67
3 58 71 119
3 58 119 118
3 111 67 58
3 112 110 111
3 58 118 112
3 120 111 110
3 110 112 118
3 118 119 120
3 121 119 71
3 73 67 120
3 122 121 71
3 73 120 122
3 119 121 122
3 125 74 75
3 75 76 127
3 130 76 78
3 136 134 86
3 86 87 135
3 132 84 86
3 87 93 146
3 100 138 146
3 147 106 74
3 106 147 143
3 150 148 149
3 149 152 151
3 160 158 159
3 159 169 166
3 166 167 168
3 168 165 173
3 173 172 170
3 170 171 164
3 164 157 156
3 156 155 154
3 154 153 163
3 154 163 175
3 164 156 154
3 173 170 164
3 166 168 173
3 160 159 166
3 161 162 160
3 154 175 174
3 174 161 160
3 160 166 173
3 173 164 154
3 174 160 173
3 8 176 152
3 8 150 151
3 79 172 173
3 164 171 80
3 154 155 82
3 156 157 81
3 82 85 174
3 83 82 175
3 80 171 170
3 174 85 102
3 161 102 101
3 160 162 101
3 147 137 124
3 124 123 125
3 125 126 127
3 131 130 129
3 125 127 131
3 143 147 124
3 124 125 131
3 131 129 128
3 128 167 166
3 166 136 135
3 135 146 138
3 138 139 140
3 140 142 141
3 141 143 124
3 124 131 128
3 128 166 135
3 135 138 140
3 140 141 124
3 124 128 135
3 166 169 132
3 132 144 145
3 133 134 136
3 132 145 133
3 136 166 132
3 128 129 78
3 78 165 168
3 132 169 159
