ply
format ascii 1.0
comment Created in Blender version 4.0.0
element vertex 182
property float x
property float y
property float z
element face 381
property list uchar uint vertex_indices
end_header
0.2108 0.1843 0.014799986
0.2072 0.2056 0.034699984
0.2072 0.20560001 0.24409999
0.2108 0.18430002 0.2648
0.1827 0.18070002 0.2648
0.1792 0.20210001 0.24409999
0.1792 0.2021 0.034699984
0.1827 0.1807 0.014799986
0.1298 0.057400044 0.6129
0.1397 0.101300046 0.5462
0.1108 0.09130004 0.5372
0.2305 0.079200044 0.5537
0.2542 0.078600034 0.5107
0.2188 0.10620004 0.4966
0.1213 0.11750004 0.4917
0.201 0.095900044 0.556
0.2313 -0.09969996 0.5149
0.2391 -0.059299953 0.6456
0.2167 -0.106499955 0.6239
0.2051 0.05240005 0.6233
0.2612 0.011000047 0.6296
0.2735 0.0065000365 0.4803
0.1457 -0.10899996 0.5052
0.1471 -0.05409997 0.3804
0.2512 -0.044999972 0.3908
0.1064 -0.017299965 0.4578
0.1343 -0.12169995 0.62
0.0618 -0.026099954 0.622
0.0774 0.029800046 0.6061
0.102 0.04630004 0.4796
0.1166 0.18110003 0.4754
0.212 0.19110003 0.4878
0.2306 0.21630003 0.38819999
0.1145 0.20810004 0.37579998
0.294 0.057300035 0.435
0.2709 0.13150004 0.4676
0.2152 0.15580004 0.5139
0.3006 0.09980002 0.3196
0.0854 0.12540004 0.446
0.1184 0.15400004 0.4979
0.0785 0.03850003 0.4031
0.2565 -0.032699972 0.3418
0.151 -0.036799975 0.3317
0.1715 -0.05579998 0.2484
0.2676 -0.049999982 0.2594
0.1207 0.074600026 0.2599
0.1363 -0.040699985 0.2184
0.3096 0.06730002 0.2656
0.2584 0.20230001 0.28229997
0.2874 -0.035699982 0.2353
0.111 0.17920001 0.2657
0.1747 -0.13289998 0.12950002
0.3229 -0.10429999 0.13640001
0.218 -0.2129 0.076100014
0.3368 -0.19 0.08160002
0.3386 -0.03159999 0.1145
0.3135 0.123500004 0.14709999
0.2844 0.2053 0.0044999844
0.2785 0.21740001 0.15519999
0.3135 0.1222 0.0044999905
0.3367 -0.0322 0.004500002
0.3286 -0.1957 0.004600015
0.2098 -0.2186 0.004700016
0.1496 0.16730002 0.23359999
0.148 0.16290002 0.14779998
0.0998 0.18930002 0.14509998
0.1223 -0.033699993 0.1114
0.1165 0.1836 0.004399986
0.1181 -0.0296 0.0046000024
0.2422 0.186 0.051399983
0.239 0.17720002 0.15289998
0.2249 0.18780002 0.24159999
0.1553 0.1736 0.050399985
0.168 -0.16369992 1.048
0.1071 -0.20409992 1.0412
0.0716 -0.20789993 1.0649
0.0573 -0.18229993 1.0312
0 -0.23159993 1.0644
0.0353 -0.22489993 1.0628
0.0384 -0.21409993 1.0015
0 -0.21609993 1.0027
0.033 -0.15479992 0.9253
0.0356 -0.18819992 0.9616
0 -0.19099993 0.9606
0 -0.15829992 0.9223
0.0227 -0.06809993 0.9211
0.025 -0.089099936 0.9094
0 -0.088599935 0.9091
0 -0.05989993 0.9209
0.0142 -0.03299993 0.9478
0 -0.03499993 0.9498
0 0.047200073 0.9322
0.0181 0.04700007 0.9296
0.0465 -0.14099993 0.9758
0.0649 0.11730006 0.9243
0.0592 0.12140007 0.9556
0.0979 0.09350006 0.7433
0.1269 0.08340005 0.6365
0.0756 0.03020005 0.641
0.0532 0.040900055 0.7286
0.2045 0.07970005 0.6509
0.1982 0.08770006 0.7599
0.2534 0.00380005 0.6615
0.2224 -0.12799995 0.7069
0.1151 -0.14599994 0.6999
0.2511 -0.007399944 0.7426
0.0219 0.046400066 0.908
0.0418 -0.024999946 0.7146
0.1067 -0.16429992 0.945
0.0807 -0.15699993 0.9337
0.2344 -0.010599924 1.0038
0.2112 -0.12589993 0.957
0.0175 -0.03199993 0.9199
0.0456 -0.11829993 0.9247
0.1799 -0.14349993 0.9625
0.20979814 0.19022773 0.25903928
0.18951102 0.18762225 0.2590454
0.18173052 0.18662763 0.25906628
0.19015527 0.18827699 0.020855488
0.18163972 0.18718289 0.02082846
0.20970121 0.19080119 0.020873865
0.18242887 0.18235779 0.24697508
0.1820677 0.18456598 0.25066286
0.21039358 0.18670471 0.2446694
0.1827 0.18070002 0.24420652
0.2108 0.18430002 0.24064906
0.1820211 0.184851 0.028898723
0.2108 0.1843 0.042885963
0.2106146 0.18539694 0.039590012
0.1827 0.1807 0.041361444
0.21046041 0.18630928 0.036430366
0.16707623 -0.1581196 1.0691147
0.16599566 -0.14951538 1.0656866
0.13907358 -0.17504255 1.0763295
0.11246726 -0.19032867 1.0828669
0.09599494 -0.19471194 1.0848801
0.01478561 -0.23293154 1.1014558
0.027427835 -0.2304648 1.10027
0.033911522 -0.22919972 1.0996618
0 -0.23428519 1.1022296
0.056943122 -0.21779516 1.0947345
0.07058479 -0.20363143 1.0888497
0.0002560761 0.10279931 0.9672596
0 0.10276927 0.9672756
0.037827812 0.11452989 0.96197385
0.074316636 0.12019177 0.95913494
0.13411064 0.114022 0.9606681
0.06298631 0.12060611 0.9591466
0.1887355 -0.14946271 1.065309
0.22351563 0.012567174 0.9998885
0.23267917 -0.0057138195 1.0070643
0.23304568 -0.008909856 1.0083383
0.23220363 -0.016121866 1.0112392
0.23284127 -0.011346474 1.0093172
0.22678888 -0.041968472 1.0216728
0.20424168 -0.13766894 1.0603439
0.05515976 0.12270117 0.95843047
0.06167864 0.12100204 0.95900863
0.17885095 0.109671205 0.96170884
-0.00025369987 0.10280674 0.9672646
-0.0084710475 -0.14825335 0.9209843
-0.00850058 -0.15739834 0.92307276
-0.008205935 -0.19035451 0.9608305
-0.00827364 -0.18192399 0.95174974
-0.008128777 -0.19588989 0.969258
-0.0078123035 -0.21569304 1.0024558
-0.0070859226 -0.23025501 1.0640788
-0.007650742 -0.2180072 1.0157257
-0.0065693893 -0.19810903 1.087848
-0.006865675 -0.23221827 1.0816067
-0.0066030878 -0.23369579 1.102097
-0.007112971 0.047121476 0.9311783
-0.008255064 -0.08876504 0.90919906
-0.007936183 -0.062766746 0.9209699
-0.008152095 -0.08123791 0.9134095
-0.007636699 -0.045433227 0.9353667
-0.0084281545 -0.1349708 0.91795105
-0.006509042 -0.13437842 1.0623296
-0.0062824795 0.104883246 0.96652764
-0.006586981 0.08300211 0.9538982
-0.007249535 0.006255515 0.94016427
-0.0073872088 -0.03395948 0.94875956
3 1 6 5
3 5 2 1
3 8 9 10
3 11 12 13
3 13 14 9
3 9 15 13
3 14 10 9
3 16 17 18
3 19 20 11
3 15 9 8
3 8 19 15
3 20 12 11
3 20 17 21
3 21 12 20
3 16 22 23
3 23 24 16
3 22 25 23
3 22 16 18
3 18 26 22
3 25 27 28
3 28 29 25
3 29 28 10
3 14 29 10
3 19 11 15
3 15 11 13
3 28 8 10
3 30 31 32
3 32 33 30
3 34 35 12
3 12 21 34
3 35 31 36
3 36 12 35
3 35 34 37
3 37 32 35
3 30 33 38
3 31 30 39
3 39 36 31
3 38 29 39
3 39 30 38
3 29 38 40
3 40 25 29
3 41 42 43
3 43 44 41
3 40 38 45
3 23 40 42
3 43 45 46
3 34 24 41
3 37 47 48
3 12 36 13
3 36 39 14
3 14 13 36
3 39 29 14
3 43 42 45
3 24 34 21
3 45 42 40
3 45 38 33
3 32 31 35
3 37 41 44
3 24 23 42
3 42 41 24
3 34 41 37
3 40 23 25
3 49 47 37
3 48 50 33
3 33 32 48
3 49 44 43
3 43 46 49
3 45 33 50
3 49 46 51
3 51 52 49
3 52 51 53
3 53 54 52
3 47 55 56
3 57 58 56
3 56 59 57
3 59 56 55
3 55 60 59
3 52 55 49
3 54 55 52
3 61 54 53
3 53 62 61
3 63 64 65
3 65 50 63
3 48 47 56
3 56 58 48
3 66 65 67
3 67 68 66
3 65 66 45
3 45 50 65
3 69 70 58
3 58 57 69
3 66 51 46
3 53 66 68
3 68 62 53
3 66 53 51
3 60 55 54
3 54 61 60
3 62 68 60
3 60 61 62
3 68 67 59
3 59 60 68
3 67 57 59
3 71 48 58
3 58 70 71
3 63 71 70
3 70 64 63
3 72 67 65
3 65 64 72
3 72 64 70
3 70 69 72
3 46 45 66
3 47 49 55
3 44 49 37
3 37 48 32
3 76 74 75
3 76 75 78
3 78 79 76
3 80 79 78
3 78 77 80
3 81 82 83
3 83 84 81
3 85 86 87
3 87 88 85
3 86 81 84
3 84 87 86
3 89 90 91
3 91 92 89
3 89 85 88
3 88 90 89
3 81 86 93
3 82 81 93
3 93 79 82
3 76 79 93
3 96 97 98
3 98 99 96
3 100 97 96
3 96 101 100
3 19 102 20
3 103 104 26
3 26 18 103
3 100 101 105
3 105 102 100
3 28 27 98
3 8 98 97
3 94 106 95
3 17 103 18
3 98 27 107
3 107 99 98
3 97 100 19
3 19 8 97
3 19 100 102
3 28 98 8
3 105 103 17
3 105 17 102
3 27 26 104
3 104 107 27
3 108 74 76
3 76 109 108
3 20 102 17
3 107 112 106
3 106 99 107
3 113 112 107
3 109 76 93
3 93 113 109
3 89 93 86
3 86 85 89
3 83 82 79
3 79 80 83
3 113 93 89
3 89 112 113
3 112 89 92
3 92 106 112
3 95 106 92
3 101 96 94
3 96 99 106
3 106 94 96
3 73 74 108
3 110 105 101
3 73 114 111
3 22 26 27
3 21 17 16
3 22 27 25
3 21 16 24
3 104 109 113
3 113 107 104
3 108 109 104
3 103 114 108
3 108 104 103
3 111 114 103
3 105 110 111
3 111 103 105
3 73 108 114
3 1 130 120
3 0 120 130
3 2 123 127
3 130 127 0
3 115 125 123
3 2 116 115
3 3 116 4
3 5 116 2
3 116 117 4
3 5 121 122
3 121 117 122
3 6 126 124
3 7 126 119
3 124 4 121
3 6 118 119
3 118 7 119
3 1 120 118
3 0 118 120
3 63 124 125
3 125 123 71
3 124 122 123
3 117 48 115
3 117 116 123
3 72 69 129
3 129 128 126
3 57 67 120
3 118 126 130
3 73 132 131
3 73 131 133
3 74 133 134
3 135 74 134
3 77 138 137
3 139 77 136
3 75 141 140
3 78 140 138
3 75 135 141
3 91 142 92
3 144 92 142
3 94 145 146
3 147 145 95
3 73 148 132
3 150 110 149
3 110 150 151
3 110 153 152
3 110 151 153
3 110 152 154
3 154 111 110
3 95 144 156
3 157 147 95
3 95 156 157
3 94 158 101
3 110 158 149
3 73 155 148
3 170 163 167
3 177 180 181
3 77 167 80
3 167 165 80
3 162 163 83
3 84 163 161
3 172 174 87
3 88 174 173
3 160 84 161
3 87 176 172
3 180 90 181
3 180 171 91
3 173 175 88
3 90 175 181
3 80 164 83
3 164 162 83
3 139 137 168
3 149 142 141
3 169 166 77
3 139 169 77
3 179 178 159
3 143 171 179
3 1 2 130
3 128 130 2
3 2 115 123
3 123 125 127
3 127 128 2
3 130 128 127
3 115 3 125
3 3 115 116
3 5 117 116
3 122 117 5
3 5 6 121
3 121 4 117
3 124 121 6
3 6 119 126
3 126 129 124
3 7 129 126
3 6 1 118
3 0 7 118
3 125 71 63
3 63 50 122
3 122 121 124
3 124 123 125
3 63 122 124
3 117 122 50
3 48 71 123
3 115 116 117
3 48 123 115
3 117 50 48
3 123 122 117
3 116 115 123
3 69 128 127
3 129 126 67
3 69 127 129
3 129 67 72
3 129 127 128
3 128 69 57
3 67 126 119
3 119 118 120
3 130 128 57
3 67 119 120
3 120 130 57
3 130 120 118
3 118 119 126
3 126 128 130
3 74 73 133
3 135 75 74
3 137 136 77
3 77 78 138
3 78 75 140
3 91 143 142
3 94 95 145
3 154 155 111
3 95 92 144
3 94 146 158
3 110 101 158
3 73 111 155
3 166 169 170
3 170 168 160
3 160 161 163
3 163 162 164
3 164 165 167
3 167 166 170
3 170 160 163
3 163 164 167
3 175 173 174
3 174 172 176
3 176 160 168
3 177 178 179
3 176 168 177
3 175 174 176
3 181 175 176
3 177 179 171
3 177 171 180
3 181 176 177
3 77 166 167
3 84 83 163
3 88 87 174
3 160 176 84
3 87 84 176
3 180 91 90
3 90 88 175
3 80 165 164
3 168 170 139
3 139 136 137
3 137 177 168
3 152 153 151
3 151 150 149
3 149 158 146
3 146 145 147
3 147 157 156
3 147 156 144
3 149 146 147
3 152 151 149
3 155 154 152
3 132 148 155
3 133 131 132
3 135 134 133
3 138 140 141
3 141 135 133
3 132 155 152
3 141 133 132
3 137 138 141
3 178 177 137
3 159 178 137
3 141 132 152
3 159 137 141
3 143 159 141
3 141 152 149
3 149 147 144
3 142 143 141
3 149 144 142
3 139 170 169
3 179 159 143
3 143 91 171
